<svg width="20" height="20" viewBox="0 0 20 20" fill="none" xmlns="http://www.w3.org/2000/svg">
<path d="M3 3C2.44772 3 2 3.44772 2 4C2 4.55228 2.44772 5 3 5H14C14.5523 5 15 4.55228 15 4C15 3.44772 14.5523 3 14 3H3Z" fill="#111827"/>
<path d="M3 7C2.44772 7 2 7.44772 2 8C2 8.55228 2.44772 9 3 9H8C8.55228 9 9 8.55228 9 8C9 7.44772 8.55228 7 8 7H3Z" fill="#111827"/>
<path d="M3 11C2.44772 11 2 11.4477 2 12C2 12.5523 2.44772 13 3 13H7C7.55228 13 8 12.5523 8 12C8 11.4477 7.55228 11 7 11H3Z" fill="#111827"/>
</svg>
